0
SECTION
2
HEADER
9
$INSUNITS
70
4
9
$ACADVER
1
AC1014
9
$HANDSEED
5
FFFF
0
ENDSEC
0
SECTION
2
TABLES
0
TABLE
2
VPORT
5
8
100
AcDbSymbolTable
0
ENDTAB
0
TABLE
2
LTYPE
5
5
100
AcDbSymbolTable
70
2
0
LTYPE
5
14
100
AcDbSymbolTableRecord
100
AcDbLinetypeTableRecord
2
BYBLOCK
70
0
0
LTYPE
5
15
100
AcDbSymbolTableRecord
100
AcDbLinetypeTableRecord
2
BYLAYER
70
0
0
ENDTAB
0
TABLE
2
LAYER
5
2
100
AcDbSymbolTable
70
3
0
LAYER
5
50
100
AcDbSymbolTableRecord
100
AcDbLayerTableRecord
2
0
70
0
6
CONTINUOUS
0
LAYER
5
51
100
AcDbSymbolTableRecord
100
AcDbLayerTableRecord
2
CUTOUTS
70
0
62
1
6
CONTINUOUS
0
LAYER
5
52
100
AcDbSymbolTableRecord
100
AcDbLayerTableRecord
2
PERIMETER
70
0
62
5
6
CONTINUOUS
0
ENDTAB
0
TABLE
2
STYLE
5
3
100
AcDbSymbolTable
70
1
0
STYLE
5
11
100
AcDbSymbolTableRecord
100
AcDbTextStyleTableRecord
2
STANDARD
70
0
0
ENDTAB
0
TABLE
2
VIEW
5
6
100
AcDbSymbolTable
0
ENDTAB
0
TABLE
2
UCS
5
7
100
AcDbSymbolTable
0
ENDTAB
0
TABLE
2
APPID
5
9
100
AcDbSymbolTable
70
1
0
APPID
5
12
100
AcDbSymbolTableRecord
100
AcDbRegAppTableRecord
2
ACAD
70
0
0
ENDTAB
0
TABLE
2
DIMSTYLE
5
A
100
AcDbSymbolTable
0
ENDTAB
0
TABLE
2
BLOCK_RECORD
5
1
100
AcDbSymbolTable
70
2
0
BLOCK_RECORD
5
1F
100
AcDbSymbolTableRecord
100
AcDbBlockTableRecord
2
*MODEL_SPACE
0
BLOCK_RECORD
5
1B
100
AcDbSymbolTableRecord
100
AcDbBlockTableRecord
2
*PAPER_SPACE
0
ENDTAB
0
ENDSEC
0
SECTION
2
BLOCKS
0
BLOCK
5
20
100
AcDbEntity
100
AcDbBlockBegin
2
*MODEL_SPACE
0
ENDBLK
5
21
100
AcDbEntity
100
AcDbBlockEnd
0
BLOCK
5
1C
100
AcDbEntity
100
AcDbBlockBegin
2
*PAPER_SPACE
0
ENDBLK
5
1D
100
AcDbEntity
100
AcDbBlockEnd
0
ENDSEC
0
SECTION
2
ENTITIES
0
ARC
5
100
100
AcDbEntity
8
PERIMETER
100
AcDbCircle
10
56.723972578210315
20
112.5
30
0
40
5.055000000000005
210
0
220
0
230
1
100
AcDbArc
50
0
51
90
0
LINE
5
101
100
AcDbEntity
8
PERIMETER
100
AcDbLine
10
56.723972578210315
20
117.55500000000001
30
0
11
3.9416719230442165
21
117.55500000000001
31
0
0
ARC
5
102
100
AcDbEntity
8
PERIMETER
100
AcDbCircle
10
3.9416719230442254
20
112.5
30
0
40
5.0550000000000139
210
0
220
0
230
1
100
AcDbArc
50
90.000000000000099
51
249.9999999999998
0
LINE
5
103
100
AcDbEntity
8
PERIMETER
100
AcDbLine
10
2.2127600985329554
20
107.74985380192723
30
0
11
16.726929914748794
21
102.46712801373968
31
0
0
LINE
5
104
100
AcDbEntity
8
PERIMETER
100
AcDbLine
10
16.726929914748794
20
102.46712801373968
30
0
11
11.897909907831359
21
89.199504586639463
31
0
0
LINE
5
105
100
AcDbEntity
8
PERIMETER
100
AcDbLine
10
11.897909907831359
20
89.199504586639463
30
0
11
15.656680390975017
21
87.831424013336786
31
0
0
LINE
5
106
100
AcDbEntity
8
PERIMETER
100
AcDbLine
10
15.656680390975017
20
87.831424013336786
30
0
11
8.8538997402274866
21
69.14093778590501
31
0
0
LINE
5
107
100
AcDbEntity
8
PERIMETER
100
AcDbLine
10
8.8538997402274866
20
69.14093778590501
30
0
11
5.0951292570838369
21
70.509018359207658
31
0
0
LINE
5
108
100
AcDbEntity
8
PERIMETER
100
AcDbLine
10
5.0951292570838369
20
70.509018359207658
30
0
11
-3.4929965418237341
21
46.913336651273511
31
0
0
LINE
5
109
100
AcDbEntity
8
PERIMETER
100
AcDbLine
10
-3.4929965418237341
20
46.913336651273511
30
0
11
0.26577394131989784
21
45.545256077970834
31
0
0
LINE
5
10A
100
AcDbEntity
8
PERIMETER
100
AcDbLine
10
0.26577394131989784
20
45.545256077970834
30
0
11
-37.318819608737861
21
-57.717566020192592
31
0
0
LINE
5
10B
100
AcDbEntity
8
PERIMETER
100
AcDbLine
10
-37.318819608737861
20
-57.717566020192592
30
0
11
-41.077590091881497
21
-56.349485446889886
31
0
0
LINE
5
10C
100
AcDbEntity
8
PERIMETER
100
AcDbLine
10
-41.077590091881497
20
-56.349485446889886
30
0
11
-49.665715890789059
21
-79.945167154824048
31
0
0
LINE
5
10D
100
AcDbEntity
8
PERIMETER
100
AcDbLine
10
-49.665715890789059
20
-79.945167154824048
30
0
11
-45.906945407645424
21
-81.313247728126726
31
0
0
LINE
5
10E
100
AcDbEntity
8
PERIMETER
100
AcDbLine
10
-45.906945407645424
20
-81.313247728126726
30
0
11
-52.709726058392967
21
-100.00373395555843
31
0
0
LINE
5
10F
100
AcDbEntity
8
PERIMETER
100
AcDbLine
10
-52.709726058392967
20
-100.00373395555843
30
0
11
-56.468496541536652
21
-98.635653382255768
31
0
0
LINE
5
110
100
AcDbEntity
8
PERIMETER
100
AcDbLine
10
-56.468496541536652
20
-98.635653382255768
30
0
11
-60.885433586151876
21
-110.77108817548873
31
0
0
ARC
5
111
100
AcDbEntity
8
PERIMETER
100
AcDbCircle
10
-56.135287388079121
20
-112.5
30
0
40
5.0549999999999971
210
0
220
0
230
1
100
AcDbArc
50
159.9999999999998
51
270
0
LINE
5
112
100
AcDbEntity
8
PERIMETER
100
AcDbLine
10
-56.135287388079121
20
-117.55499999999998
30
0
11
56.723972578210315
21
-117.55500000000001
31
0
0
ARC
5
113
100
AcDbEntity
8
PERIMETER
100
AcDbCircle
10
56.723972578210308
20
-112.5
30
0
40
5.0550000000000139
210
-0
220
0
230
1
100
AcDbArc
50
-89.999999999999844
51
0
0
LINE
5
114
100
AcDbEntity
8
PERIMETER
100
AcDbLine
10
61.778972578210308
20
-112.5
30
0
11
61.778972578210329
21
-79.444999999999979
31
0
0
LINE
5
115
100
AcDbEntity
8
PERIMETER
100
AcDbLine
10
61.778972578210315
20
-79.444999999999979
30
0
11
46.778972578210315
21
-79.444999999999979
31
0
0
LINE
5
116
100
AcDbEntity
8
PERIMETER
100
AcDbLine
10
46.778972578210315
20
-79.444999999999979
30
0
11
46.778972578210315
21
-75.555000000000021
31
0
0
LINE
5
117
100
AcDbEntity
8
PERIMETER
100
AcDbLine
10
46.778972578210315
20
-75.555000000000021
30
0
11
61.778972578210315
21
-75.555000000000021
31
0
0
LINE
5
118
100
AcDbEntity
8
PERIMETER
100
AcDbLine
10
61.778972578210315
20
-75.555000000000021
30
0
11
61.778972578210315
21
-45.444999999999993
31
0
0
LINE
5
119
100
AcDbEntity
8
PERIMETER
100
AcDbLine
10
61.778972578210315
20
-45.444999999999993
30
0
11
43.517357432164815
21
-45.444999999999993
31
0
0
LINE
5
11A
100
AcDbEntity
8
PERIMETER
100
AcDbLine
10
43.517357432164815
20
-45.444999999999993
30
0
11
43.517357432164815
21
-41.555000000000021
31
0
0
LINE
5
11B
100
AcDbEntity
8
PERIMETER
100
AcDbLine
10
43.517357432164815
20
-41.555000000000021
30
0
11
61.778972578210315
21
-41.555000000000021
31
0
0
LINE
5
11C
100
AcDbEntity
8
PERIMETER
100
AcDbLine
10
61.778972578210315
20
-41.555000000000021
30
0
11
61.778972578210315
21
13.55500000000001
31
0
0
LINE
5
11D
100
AcDbEntity
8
PERIMETER
100
AcDbLine
10
61.778972578210315
20
13.55500000000001
30
0
11
43.517357432164815
21
13.55500000000001
31
0
0
LINE
5
11E
100
AcDbEntity
8
PERIMETER
100
AcDbLine
10
43.517357432164815
20
13.55500000000001
30
0
11
43.517357432164815
21
17.444999999999986
31
0
0
LINE
5
11F
100
AcDbEntity
8
PERIMETER
100
AcDbLine
10
43.517357432164815
20
17.444999999999986
30
0
11
61.778972578210315
21
17.444999999999986
31
0
0
LINE
5
120
100
AcDbEntity
8
PERIMETER
100
AcDbLine
10
61.778972578210315
20
17.444999999999986
30
0
11
61.778972578210315
21
75.555000000000007
31
0
0
LINE
5
121
100
AcDbEntity
8
PERIMETER
100
AcDbLine
10
61.778972578210315
20
75.555000000000007
30
0
11
46.778972578210315
21
75.555000000000007
31
0
0
LINE
5
122
100
AcDbEntity
8
PERIMETER
100
AcDbLine
10
46.778972578210315
20
75.555000000000007
30
0
11
46.778972578210315
21
79.444999999999979
31
0
0
LINE
5
123
100
AcDbEntity
8
PERIMETER
100
AcDbLine
10
46.778972578210315
20
79.444999999999979
30
0
11
61.778972578210315
21
79.444999999999979
31
0
0
LINE
5
124
100
AcDbEntity
8
PERIMETER
100
AcDbLine
10
61.778972578210315
20
79.444999999999979
30
0
11
61.778972578210315
21
112.5
31
0
0
ENDSEC
0
SECTION
2
OBJECTS
0
DICTIONARY
5
C
100
AcDbDictionary
3
ACAD_GROUP
350
D
3
ACAD_MLINESTYLE
350
17
0
DICTIONARY
5
D
100
AcDbDictionary
0
DICTIONARY
5
1A
330
C
100
AcDbDictionary
0
DICTIONARY
5
17
100
AcDbDictionary
0
ENDSEC
0
EOF
